<!-- Generated by IcoMoon.io -->
<svg version="1.1" xmlns="http://www.w3.org/2000/svg" width="32" height="32" viewBox="0 0 32 32">
<title><change-camera></change-camera></title>
<path d="M3.1,25 L27.9,25 C29.5877386,25 31,23.5785714 31,21.8792857 L31,7.83642857 C31,6.13714286 29.5877386,4.71571429 27.9,4.71571429 L24.18,4.71571429 C23.6632159,4.71571429 23.1122614,4.29964286 22.94,3.81428571 L21.9754773,0.901428571 C21.8032159,0.416071429 21.2526136,0 20.7354773,0 L10.23,0 C9.71321591,0 9.16226136,0.416071429 8.99,0.901428571 L8.02547727,3.81428571 C7.85321591,4.29964286 7.30226136,4.71571429 6.82,4.71571429 L3.1,4.71571429 C1.41226136,4.71571429 0,6.13714286 0,7.83642857 L0,21.8792857 C0,23.5785714 1.41226136,25 3.1,25 Z M11.0412095,9.77551581 C12.060432,8.68637666 13.409304,8.07397689 14.8563982,8.00562088 C17.9150749,7.86960994 20.5135877,10.2179019 20.7766346,13.3149551 L21.7961935,13.2809524 C21.9606819,13.2809524 22.0592403,13.4849688 21.9606819,13.6209798 L19.9541927,15.9356195 C19.8885991,16.003625 19.7570757,16.0376277 19.6911458,15.9356195 L17.487876,13.8593494 C17.3560162,13.7233385 17.4219461,13.5193221 17.619063,13.5193221 L18.3759114,13.4849688 C18.5070985,13.4849688 18.5730284,13.3833111 18.5730284,13.2465991 C18.2770166,11.511408 16.7639925,10.2519046 15.0208866,10.3199101 C14.1328511,10.3539129 13.3433741,10.7282935 12.7513505,11.3750465 C12.685757,11.443052 12.5538972,11.443052 12.4883036,11.3750465 L11.139768,10.1158937 C10.9752796,9.97953222 10.9752796,9.84352128 11.0412095,9.77551581 L11.0412095,9.77551581 Z M8.06213614,14.5735144 L10.453272,12.0547076 C10.5213906,11.9817641 10.6583264,11.9817641 10.7264449,12.0547076 L13.0833469,14.6099862 C13.1429545,14.6693307 13.1623062,14.7621396 13.1319767,14.84321 C13.1016471,14.9242804 13.0279423,14.9767565 12.9467604,14.9750797 L12.0926586,14.9750797 C11.9564215,14.9750797 11.8537196,15.0848709 11.8879536,15.2307579 C12.0241907,15.9974167 12.3658314,16.690756 12.9125265,17.2385842 C13.6639265,18.005243 14.6203809,18.44328 15.6449538,18.44328 C16.6695267,18.44328 17.660215,18.005243 18.3773811,17.2385842 L19.9486491,18.9177888 C20.017117,18.9907323 20.017117,19.1366193 19.9486491,19.2095628 C18.7874897,20.3777868 17.2504557,21.0350303 15.6449538,20.9985585 C13.9713333,20.9985585 12.4000654,20.3048433 11.2046721,19.027204 C10.2139838,17.9683952 9.59917017,16.5813407 9.42869913,15.0848709 C9.42869913,14.9750797 9.32599731,14.9021362 9.22364481,14.9021362 L8.23295652,14.9021362 C8.02825153,14.9386079 7.92554971,14.6833057 8.06213614,14.5735144 L8.06213614,14.5735144 Z" id="形状"></path>
</svg>