<?xml version="1.0" encoding="UTF-8"?>
<svg width="58px" height="58px" viewBox="0 0 58 58" version="1.1" xmlns="http://www.w3.org/2000/svg" xmlns:xlink="http://www.w3.org/1999/xlink">
    <!-- Generator: Sketch 58 (84663) - https://sketch.com -->
    <title>mdpi/挂断</title>
    <desc>Created with Sketch.</desc>
    <g id="页面-1" stroke="none" stroke-width="1" fill="none" fill-rule="evenodd">
        <g id="ios-视频通话-接通备份-2" transform="translate(-42.000000, -702.000000)">
            <g id="挂断" transform="translate(42.000000, 702.000000)">
                <circle id="Circle" fill="#E33932" cx="29" cy="29" r="29"></circle>
                <path d="M18.0673368,26.4056186 C16.5705804,23.6934501 16,21.5069776 16,20.0301655 C16,18.5533534 16.3630304,18.1297856 16.7314066,17.787599 C17.0997828,17.4454124 18.7609005,16.4218161 19.0439308,16.2309191 C19.326961,16.040022 20.4071847,15.6690341 21.0846094,16.643009 C21.762034,17.6169839 23.0377056,19.572522 23.9172031,20.8716165 C25.2973041,22.711682 24.197809,23.5194404 23.8426653,24.003586 C23.1891521,24.8944802 22.8128593,25.1142125 22.8128593,26.2081474 C22.8128593,27.3020823 25.8717073,30.4099904 26.6031138,31.1757448 C27.3289567,31.9356742 30.3768372,34.6061584 31.3212702,34.7489635 C32.272347,34.8927732 33.5455704,33.8863896 33.8162752,33.6311924 C35.1933766,32.5744789 35.9707235,33.3756221 36.6050435,33.7238618 C37.2393635,34.0721016 40.1053464,35.8570348 40.9934829,36.458699 C41.8293761,37.0603632 41.7771328,37.9902079 41.7771328,37.9902079 C41.7771328,37.9902079 41.182457,39.7253546 39.8441297,41.0532256 C39.5150733,41.3797111 38.9559932,41.7642832 37.5454234,41.7642832 C36.1348536,41.7642832 34.6277271,41.506786 31.045965,39.5379903 C28.11523,37.9270463 25.3214214,35.4044168 23.8586083,33.9276047 C22.3435519,32.4507926 19.7770542,29.5036787 18.0673368,26.4056186 Z" id="Phone-Icon" fill="#FFFFFF" transform="translate(28.888889, 28.882142) rotate(-225.000000) translate(-28.888889, -28.882142) "></path>
            </g>
        </g>
    </g>
</svg>