<!-- Generated by IcoMoon.io -->
<svg version="1.1" xmlns="http://www.w3.org/2000/svg" width="32" height="32" viewBox="0 0 32 32">
<title>hangup</title>
<path d="M1.36337299,6.86592035 C0.37628791,5.07635517 -3.34714895e-15,3.63365898 0,2.65921675 C3.46511014e-15,1.68477452 0.239412271,1.40529252 0.482350018,1.17950817 C0.725287766,0.953723825 1.82076631,0.27832618 2.00741985,0.152366905 C2.1940734,0.02640763 2.90646234,-0.218380638 3.35321221,0.424275439 C3.79996208,1.06693152 4.64124554,2.35725067 5.22125896,3.21442983 C6.13141178,4.42855687 5.4063137,4.96153866 5.17210253,5.28099155 C4.74112188,5.86882863 4.49296328,6.0138142 4.49296328,6.73562326 C4.49296328,7.45743232 6.51022073,9.50811765 6.99257075,10.013384 C7.47125159,10.5148068 9.48127626,12.2768675 10.1041135,12.3710944 C10.7313323,12.465984 11.5710012,11.8019438 11.7495263,11.6335575 C12.6577009,10.9363082 13.1703478,11.464925 13.5886709,11.6947034 C14.0069941,11.9244818 15.8970603,13.1022311 16.4827711,13.4992261 C17.0340282,13.896221 16.9995746,14.5097587 16.9995746,14.5097587 C16.9995746,14.5097587 16.6073962,15.6546574 15.7247925,16.5308241 C15.5077854,16.7462485 15.1390817,17 14.2088353,17 C13.2785888,17 12.2846648,16.8300961 9.92255448,15.5310292 C7.9897853,14.468083 6.14731673,12.803581 5.18261669,11.8291387 C4.18346308,10.8546965 2.4909021,8.9101077 1.36337299,6.86592035 Z" id="Phone-Icon"></path>
</svg>