<?xml version="1.0" encoding="UTF-8"?>
<svg width="57px" height="57px" viewBox="0 0 57 57" version="1.1" xmlns="http://www.w3.org/2000/svg" xmlns:xlink="http://www.w3.org/1999/xlink">
    <!-- Generator: Sketch 58 (84663) - https://sketch.com -->
    <title>mdpi/静音</title>
    <desc>Created with Sketch.</desc>
    <g id="页面-1" stroke="none" stroke-width="1" fill="none" fill-rule="evenodd">
        <g id="ios-语音通话-接通置亮" transform="translate(-160.000000, -703.000000)">
            <g id="静音" transform="translate(160.000000, 703.000000)">
                <circle id="Circle-Copy-2" fill="#FFFFFF" cx="28.5" cy="28.5" r="28.5"></circle>
                <g id="编组" transform="translate(15.000000, 12.000000)" fill="#345E82">
                    <path d="M22.8888897,13.2247106 C23.502539,13.2247106 24,13.7023233 24,14.2914884 L23.996,14.349 L23.996,17.001104 L23.9822222,17.001104 C23.9857104,21.9017587 20.1706237,26.0302761 15.1022289,26.6106385 L15.1022289,29.8536431 L19.2888924,29.8536431 L19.2879136,29.8673196 C19.3029794,29.866738 19.3181224,29.8664444 19.3333368,29.8664444 C19.9469861,29.8664444 20.4444471,30.3440571 20.4444471,30.9332222 C20.4444471,31.5223873 19.9469861,32 19.3333368,32 L19.288,31.997 L19.2888924,32 L8.70667809,32 C8.69366959,31.999768 8.68020207,32 8.66667812,32 C8.05302886,32 7.55556784,31.5223873 7.55556784,30.9332222 C7.55556784,30.3440571 8.05302886,29.8664444 8.66667812,29.8664444 L8.706,29.868 L8.70667809,29.8536431 L12.9022305,29.8536431 L12.9022305,26.6106385 C7.82303393,26.0439105 3.99383145,21.9104616 4.00000746,17.001104 C4.00000746,16.9541658 4.00757049,16.9114947 4.00845938,16.8688236 L4.00797837,14.4198678 C4.00272039,14.3777792 4.00001494,14.3349372 4.00001494,14.2914884 C4.00001494,13.7023233 4.49747595,13.2247106 5.11112522,13.2247106 C5.72477448,13.2247106 6.2222355,13.7023233 6.2222355,14.2914884 L6.216,14.39 L6.21690217,17.3339387 L6.2111244,17.3339387 L6.2111244,17.3424729 C6.2111244,17.3808769 6.21645773,17.4192809 6.21690217,17.4576849 L6.21690217,17.8587934 L6.23779104,17.8587934 C6.56805577,21.6527268 9.80189914,24.6097811 13.7648965,24.7416438 L14.2137851,24.7416438 C18.1780511,24.6119546 21.4136706,21.6539748 21.7426684,17.8587934 L21.769335,17.8587934 L21.769335,14.3042897 C21.7778072,14.3002858 21.7777794,14.2958902 21.7777794,14.2914884 C21.7777794,13.7023233 22.2752405,13.2247106 22.8888897,13.2247106 Z M13.9960075,0 C16.6449435,0 18.9693731,1.6945161 19.6808921,4.14429792 C19.8479814,4.70526306 19.9522749,5.28173896 19.992003,5.86394374 C20.02965,6.47037555 19.9964321,8.86468266 19.9923938,9.67789522 L19.992003,15.2046502 L19.9911141,15.2046502 C19.9911141,15.848984 19.9911141,16.5274547 19.9555586,17.1717885 C19.928265,17.7528384 19.8358807,18.3293772 19.6800032,18.8914343 C19.3321775,20.0711577 18.5904809,21.10858 17.5688937,21.8442753 C15.4735115,23.4315653 12.5176146,23.4315653 10.4222324,21.8442753 C9.39798774,21.1108581 8.65537361,20.0725896 8.31023394,18.8914343 C8.1536405,18.3295357 8.06139066,17.7529062 8.03512304,17.1717885 C7.9964564,16.5274547 7.99992615,15.848984 7.99992615,15.2046502 L7.99992615,9.81102163 C7.99992615,9.17095494 8.0035675,6.3418602 7.99992615,5.86394374 C8.01757765,5.27939854 8.12234728,4.70029099 8.31112283,4.14429792 C9.02264187,1.6945161 11.3470714,0 13.9960075,0 Z" id="Dictation"></path>
                    <path d="M0,5 L25.5,29.5" id="Line" stroke="#345E82" stroke-width="1.33333333" stroke-linecap="round"></path>
                </g>
            </g>
        </g>
    </g>
</svg>