<?xml version="1.0" encoding="UTF-8"?>
<svg width="58px" height="58px" viewBox="0 0 58 58" version="1.1" xmlns="http://www.w3.org/2000/svg" xmlns:xlink="http://www.w3.org/1999/xlink">
    <!-- Generator: Sketch 58 (84663) - https://sketch.com -->
    <title>mdpi/免提</title>
    <desc>Created with Sketch.</desc>
    <g id="页面-1" stroke="none" stroke-width="1" fill="none" fill-rule="evenodd">
        <g id="ios-语音通话-接通置亮" transform="translate(-275.000000, -702.000000)">
            <g id="免提" transform="translate(275.000000, 702.000000)">
                <circle id="Circle-Copy" fill="#FFFFFF" cx="29" cy="29" r="29"></circle>
                <path d="M38.5288565,16.184482 C38.9776893,15.8675948 39.6023586,15.9690744 39.9240945,16.4111431 C42.5597489,20.0325619 44,24.3729667 44,28.9241813 C44,33.5433021 42.5163028,37.9445662 39.8073324,41.5961206 C39.4815276,42.0352889 38.8559471,42.1311685 38.4100591,41.8102738 C37.9641711,41.489379 37.8668245,40.8732261 38.1926292,40.4340578 C40.6534077,37.1170535 42.0001758,33.1219782 42.0001758,28.9241813 C42.0001758,24.7880621 40.6928487,20.8482429 38.2987272,17.5586932 C37.9769914,17.1166245 38.0800238,16.5013692 38.5288565,16.184482 Z M35.8916082,20.4089606 C37.901393,23.0481819 39,26.2151014 39,29.5354194 C39,32.8236151 37.9226144,35.9616924 35.9487521,38.5863674 C35.6188897,39.0249905 34.9694002,39.1317111 34.4980767,38.8247345 C34.0267531,38.517758 33.9120763,37.9133301 34.2419387,37.474707 C35.9723739,35.1737208 36.9167018,32.4231978 36.9167018,29.5354194 C36.9167018,26.6194665 35.9537821,23.8436884 34.1918585,21.5299551 C33.8592264,21.0931473 33.9700767,20.4881015 34.4394496,20.1785474 C34.9088225,19.8689933 35.5589761,19.9721528 35.8916082,20.4089606 Z M25,19.5349517 L25,38.4650483 C25,38.760494 24.8269653,38.8478816 24.6035932,38.6515105 L18.175,33 L12.5249023,33 C12.2350068,33 12,32.7692032 12,32.4750977 L12,25.5249023 C12,25.2350068 12.2307968,25 12.5249023,25 L18.174,25 L24.6035932,19.3484895 C24.8225226,19.156024 25,19.2385423 25,19.5349517 Z M30.8901284,23.4061151 C32.2535088,25.1752869 33,27.3049105 33,29.5380238 C33,31.7353368 32.2773211,33.8328446 30.9541564,35.5859789 C30.619601,36.0292499 29.9672625,36.1328839 29.4971176,35.817452 C29.0269727,35.5020201 28.9170557,34.8869699 29.2516111,34.4436989 C30.325027,33.0214707 30.9103898,31.32251 30.9103898,29.5380238 C30.9103898,27.7244996 30.3057348,25.9995126 29.19963,24.5641909 C28.8604482,24.1240564 28.9639181,23.5080128 29.4307363,23.1882189 C29.8975546,22.8684251 30.5509467,22.9659806 30.8901284,23.4061151 Z" id="Audio-Icon" fill="#345E82"></path>
            </g>
        </g>
    </g>
</svg>